<?xml version="1.0" encoding="utf-8"?>
<!-- Generator: Adobe Illustrator 27.0.0, SVG Export Plug-In . SVG Version: 6.00 Build 0)  -->
<svg version="1.1" id="Capa_1" xmlns="http://www.w3.org/2000/svg" xmlns:xlink="http://www.w3.org/1999/xlink" x="0px" y="0px"
	 viewBox="0 0 297 227.8" style="enable-background:new 0 0 297 227.8;" xml:space="preserve">
<style type="text/css">
	.st0{fill:none;stroke:#000000;stroke-miterlimit:10;}
</style>
<path d="M235,124c-4,0-7.2,3.2-7.2,7.2c0,4,3.2,7.2,7.2,7.2c4,0,7.2-3.2,7.2-7.2C242.3,127.2,239,124,235,124z"/>
<path class="st0" d="M227.8,193.2v8.4c0,3.3,2.8,6,6,6h19.7c3.3,0,6-2.8,6-6h0v-9c-2.2,0.3-4.5,0.5-6.9,0.5H227.8z"/>
<path d="M62,124c-4,0-7.2,3.2-7.2,7.2c0,4,3.2,7.2,7.2,7.2c4,0,7.2-3.2,7.2-7.2C69.2,127.2,66,124,62,124z"/>
<path class="st0" d="M69.2,193.2H44.3c-2.3,0-4.6-0.2-6.9-0.5v9c0,3.3,2.8,6,6,6h19.7c3.3,0,6-2.8,6-6h0V193.2z"/>
<path class="st0" d="M60.8,69.2h175.4c1.1,0,1.9-0.3,2.3-0.7c0.4-0.5,0.4-1.3,0.1-2.4l-9.5-38c-1-4.1-6-8-10.2-8H78.1
	c-4.2,0-9.2,3.9-10.2,8l-9.5,38c-0.3,1.1-0.2,1.9,0.1,2.4C58.8,68.9,59.7,69.2,60.8,69.2z"/>
<path class="st0" d="M252.7,89.4H44.3c-13.3,0-24.2,10.8-24.2,24.2v35.4c0,13.3,10.8,24.2,24.2,24.2h208.4
	c13.3,0,24.2-10.8,24.2-24.2v-35.4C276.9,100.2,266,89.4,252.7,89.4z M62,158.6c-15.1,0-27.4-12.3-27.4-27.4
	c0-15.1,12.3-27.4,27.4-27.4s27.4,12.3,27.4,27.4C89.4,146.3,77.1,158.6,62,158.6z M183.1,141.3h-69.2c-5.6,0-10.1-4.5-10.1-10.1
	c0-5.6,4.5-10.1,10.1-10.1h69.2c5.6,0,10.1,4.5,10.1,10.1S188.7,141.3,183.1,141.3z M235,158.6c-15.1,0-27.4-12.3-27.4-27.4
	c0-15.1,12.3-27.4,27.4-27.4c15.1,0,27.4,12.3,27.4,27.4C262.4,146.3,250.1,158.6,235,158.6z"/>
<path d="M272.1,73.7l4.6-4.6c3.9-3.9,3.9-10.3,0-14.2c-3.9-3.9-10.3-3.9-14.2,0l-4.7,4.7l-9.1-36.3C245.4,10.2,232.4,0,218.9,0H78.1
	C64.6,0,51.6,10.2,48.3,23.3l-9.1,36.3l-4.7-4.7c-3.9-3.9-10.3-3.9-14.2,0c-3.9,3.9-3.9,10.3,0,14.2l4.6,4.6
	C10.2,80.9,0,96.1,0,113.5v35.4c0,14.3,6.8,27,17.3,35.1v17.6c0,14.4,11.7,26.2,26.2,26.2h19.7c14.4,0,26.2-11.7,26.2-26.2v-8.4
	h118.3v8.4c0,14.4,11.7,26.2,26.2,26.2h19.7c14.4,0,26.2-11.7,26.2-26.2V184c10.5-8.1,17.3-20.8,17.3-35.1v-35.4
	C297,96.1,286.8,80.9,272.1,73.7z M58.3,66.1l9.5-38c1-4.1,6-8,10.2-8h140.8c4.2,0,9.2,3.9,10.2,8l9.5,38c0.3,1.1,0.2,1.9-0.1,2.4
	c-0.4,0.5-1.2,0.7-2.3,0.7H60.8c-1.1,0-1.9-0.3-2.3-0.7C58.1,68,58.1,67.2,58.3,66.1z M63.2,207.6H43.5c-3.3,0-6-2.8-6-6v-9
	c2.2,0.3,4.5,0.5,6.9,0.5h24.9v8.4h0C69.2,204.9,66.4,207.6,63.2,207.6z M259.6,201.6L259.6,201.6c0,3.3-2.8,6-6,6h-19.7
	c-3.3,0-6-2.8-6-6v-8.4h24.9c2.3,0,4.6-0.2,6.9-0.5V201.6z M276.9,148.9c0,13.3-10.8,24.2-24.2,24.2H44.3
	c-13.3,0-24.2-10.8-24.2-24.2v-35.4c0-13.3,10.8-24.2,24.2-24.2h208.4c13.3,0,24.2,10.8,24.2,24.2V148.9z"/>
<path d="M183.1,121.1h-69.2c-5.6,0-10.1,4.5-10.1,10.1c0,5.6,4.5,10.1,10.1,10.1h69.2c5.6,0,10.1-4.5,10.1-10.1
	S188.7,121.1,183.1,121.1z"/>
<path d="M62,103.8c-15.1,0-27.4,12.3-27.4,27.4c0,15.1,12.3,27.4,27.4,27.4s27.4-12.3,27.4-27.4C89.4,116.1,77.1,103.8,62,103.8z
	 M62,138.4c-4,0-7.2-3.2-7.2-7.2c0-4,3.2-7.2,7.2-7.2s7.2,3.2,7.2,7.2C69.2,135.2,66,138.4,62,138.4z"/>
<path d="M235,103.8c-15.1,0-27.4,12.3-27.4,27.4c0,15.1,12.3,27.4,27.4,27.4s27.4-12.3,27.4-27.4C262.4,116.1,250.1,103.8,235,103.8
	z M235,138.4c-4,0-7.2-3.2-7.2-7.2c0-4,3.2-7.2,7.2-7.2c4,0,7.2,3.2,7.2,7.2C242.3,135.2,239,138.4,235,138.4z"/>
</svg>
