<?xml version="1.0" encoding="utf-8"?>
<!-- Generator: Adobe Illustrator 27.0.0, SVG Export Plug-In . SVG Version: 6.00 Build 0)  -->
<svg version="1.1" id="Capa_1" xmlns="http://www.w3.org/2000/svg" xmlns:xlink="http://www.w3.org/1999/xlink" x="0px" y="0px"
	 viewBox="0 0 142.3 123" style="enable-background:new 0 0 142.3 123;" xml:space="preserve">
<path d="M11.1,21.3C2.4,32.8-1.4,46.9,0.5,61.1S9.8,88,21.3,96.7c15.2,11.6,35.7,14.2,53.5,6.8c5.6-2.3,10.7-5.6,15.3-9.6l40.3,29.2
	l12-15.9L102,77.9c4.8-9.7,6.6-20.5,5.2-31.3c-1.8-14.2-9.3-26.9-20.8-35.6C71.1-0.7,50.6-3.2,33,4.2C24.3,7.9,16.6,13.8,11.1,21.3z
	 M74.3,26.8c7.3,5.4,11.9,13.5,13.1,22.5c1.2,9-1.2,17.9-6.6,25.1c-3.6,4.6-8.3,8.4-13.8,10.7c-11.1,4.7-24,3.1-33.7-4.2
	c-7.3-5.4-11.9-13.5-13.1-22.4c-1.2-9,1.1-17.9,6.5-25.1c3.7-4.7,8.3-8.5,13.8-10.7C51.8,17.9,64.7,19.5,74.3,26.8z"/>
</svg>
